<?xml version="1.0"?><svg width="300.72055" height="312.34729" xmlns="http://www.w3.org/2000/svg" xmlns:xlink="http://www.w3.org/1999/xlink">
 <title>papers</title>
 <metadata id="metadata115">image/svg+xmlSheikh Tuhin</metadata>
 <defs>
  <linearGradient gradientTransform="translate(0,4)" gradientUnits="userSpaceOnUse" xlink:href="#linearGradient4893" id="linearGradient4959" y2="435.03162" x2="505.21655" y1="695.01477" x1="507.53687"/>
  <linearGradient gradientTransform="matrix(1,0,0,-1,0,1175.1728)" gradientUnits="userSpaceOnUse" xlink:href="#linearGradient4893" id="linearGradient4957" y2="435.03162" x2="505.21655" y1="695.01477" x1="507.53687"/>
  <linearGradient gradientTransform="translate(0,6)" gradientUnits="userSpaceOnUse" xlink:href="#linearGradient4893" id="linearGradient4955" y2="435.03162" x2="505.21655" y1="695.01477" x1="507.53687"/>
  <linearGradient id="linearGradient4917">
   <stop stop-color="#000000" offset="0" id="stop4919"/>
   <stop stop-color="#f2f2f2" offset="1" id="stop4921"/>
  </linearGradient>
  <radialGradient gradientTransform="matrix(6.8182398e-3,0.7964116,-0.908528,7.7780924e-3,968.71756,124.33984)" gradientUnits="userSpaceOnUse" xlink:href="#linearGradient4917" id="radialGradient4953" fy="498.96671" fx="518.93054" r="218.49857" cy="498.96671" cx="518.93054"/>
  <linearGradient id="linearGradient4893">
   <stop stop-color="#000000" offset="0" id="stop4895"/>
   <stop stop-color="#000000" stop-opacity="0" offset="1" id="stop4897"/>
  </linearGradient>
  <linearGradient gradientTransform="matrix(1,0,0,-1,0,1171.1728)" gradientUnits="userSpaceOnUse" xlink:href="#linearGradient4893" id="linearGradient4951" y2="435.03162" x2="505.21655" y1="695.01477" x1="507.53687"/>
  <linearGradient id="linearGradient4909">
   <stop stop-color="#000000" offset="0" id="stop4911"/>
   <stop stop-color="#cccccc" offset="1" id="stop4913"/>
  </linearGradient>
  <radialGradient gradientTransform="matrix(-2.4717924e-8,0.4792097,-0.761379,-2.2833566e-8,965.49485,426.4337)" gradientUnits="userSpaceOnUse" xlink:href="#linearGradient4909" id="radialGradient4949" fy="604.53241" fx="459.32651" r="218.49857" cy="604.53241" cx="459.32651"/>
  <linearGradient id="linearGradient4931">
   <stop stop-color="#000000" offset="0" id="stop4933"/>
   <stop stop-color="#cccccc" offset="1" id="stop4935"/>
  </linearGradient>
  <radialGradient gradientTransform="matrix(-8.0035209e-3,1.2096377,-1.5872404,-1.0502094e-2,1429.2231,7.1996709)" gradientUnits="userSpaceOnUse" xlink:href="#linearGradient4931" id="radialGradient4947" fy="588.70575" fx="488.89267" r="219.20311" cy="588.70575" cx="488.89267"/>
  <linearGradient gradientTransform="translate(0,154)" gradientUnits="userSpaceOnUse" xlink:href="#linearGradient3939" id="linearGradient4824" y2="148.45744" x2="848.66376" y1="146.64789" x1="806.42859"/>
  <linearGradient gradientTransform="translate(0,70)" gradientUnits="userSpaceOnUse" xlink:href="#linearGradient3939" id="linearGradient4822" y2="148.45744" x2="848.66376" y1="146.64789" x1="806.42859"/>
  <linearGradient id="linearGradient3939">
   <stop stop-color="#b3b3b3" offset="0" id="stop3941"/>
   <stop stop-color="#ffffff" offset="0.5" id="stop3947"/>
   <stop stop-color="#808080" offset="1" id="stop3943"/>
  </linearGradient>
  <linearGradient gradientUnits="userSpaceOnUse" xlink:href="#linearGradient3939" id="linearGradient4820" y2="148.45744" x2="848.66376" y1="146.64789" x1="806.42859"/>
  <linearGradient id="linearGradient4758">
   <stop stop-color="#000000" offset="0" id="stop4760"/>
   <stop stop-color="#918a6f" stop-opacity="0" offset="1" id="stop4762"/>
  </linearGradient>
  <radialGradient gradientTransform="matrix(2.7487689e-2,1.0810973,-1.5543374,3.9520171e-2,716.40852,-952.26674)" gradientUnits="userSpaceOnUse" xlink:href="#linearGradient4758" id="radialGradient4764" fy="-55.67453" fx="841.56232" r="181.35938" cy="-55.67453" cx="841.56232"/>
  <linearGradient id="linearGradient4498">
   <stop stop-color="#c83737" offset="0" id="stop4500"/>
   <stop stop-color="#501616" offset="1" id="stop4502"/>
  </linearGradient>
  <radialGradient gradientTransform="matrix(0.4644707,1.1304615,-1.0381695,0.4265497,1095.5473,1030.3091)" gradientUnits="userSpaceOnUse" xlink:href="#linearGradient4498" id="radialGradient23339" fy="1203.7058" fx="-288.27811" r="61.380001" cy="1203.7058" cx="-288.27811"/>
  <radialGradient gradientTransform="matrix(-8.0035209e-3,1.2096377,-1.5872404,-1.0502094e-2,1429.2231,7.1996709)" gradientUnits="userSpaceOnUse" xlink:href="#linearGradient4931" id="radialGradient4633" fy="588.70575" fx="488.89267" r="219.20311" cy="588.70575" cx="488.89267"/>
  <radialGradient gradientTransform="matrix(-2.4717924e-8,0.4792097,-0.761379,-2.2833566e-8,965.49485,426.4337)" gradientUnits="userSpaceOnUse" xlink:href="#linearGradient4909" id="radialGradient4635" fy="604.53241" fx="459.32651" r="218.49857" cy="604.53241" cx="459.32651"/>
  <linearGradient xlink:href="#linearGradient4893" id="linearGradient4637" y2="1.124427" x2="0.500365" y1="-0.06135" x1="0.505685"/>
  <radialGradient gradientTransform="matrix(6.8182398e-3,0.7964116,-0.908528,7.7780924e-3,968.71756,124.33984)" gradientUnits="userSpaceOnUse" xlink:href="#linearGradient4917" id="radialGradient4639" fy="498.96671" fx="518.93054" r="218.49857" cy="498.96671" cx="518.93054"/>
  <linearGradient xlink:href="#linearGradient4893" id="linearGradient4641" y2="-0.124428" x2="0.500365" y1="1.06135" x1="0.505685"/>
  <linearGradient xlink:href="#linearGradient4893" id="linearGradient4643" y2="1.124427" x2="0.500365" y1="-0.06135" x1="0.505685"/>
  <linearGradient xlink:href="#linearGradient4893" id="linearGradient4645" y2="-0.124428" x2="0.500365" y1="1.06135" x1="0.505685"/>
 </defs>
 <g>
  <title>Layer 1</title>
  <g id="g5820" transform="matrix(0.30494 0 0 0.323929 426.046 -80.1094)">
   <g id="g5740" transform="matrix(0.984808 -0.173648 0.173648 0.984808 -369.705 46.3796)">
    <rect fill="#ffffff" stroke="#000000" stroke-width="4" stroke-miterlimit="4" stroke-dashoffset="0" id="rect5742" y="149.842097" x="-1012.853469" ry="12" rx="12" height="789.13116" width="579.82758"/>
    <g id="g5744">
     <path fill="#000000" stroke-miterlimit="4" stroke-dashoffset="0" id="path5746" d="m-961.961853,427.101166l0,-29.504333l0,29.504333z"/>
     <path fill="#000000" stroke-miterlimit="4" stroke-dashoffset="0" id="path5748" d="m-964.117859,691.218628l0,-29.504272l0,29.504272z"/>
    </g>
    <g id="g5750">
     <path fill="none" fill-rule="evenodd" stroke="#000000" stroke-width="2.374612px" id="path5752" d="m-488.832764,767.443726l-428.103516,0l0,0"/>
     <path fill="none" fill-rule="evenodd" stroke="#000000" stroke-width="2.374612px" id="path5754" d="m-488.832764,718.253357l-428.103516,0l0,0"/>
     <path fill="none" fill-rule="evenodd" stroke="#000000" stroke-width="2.374612px" id="path5756" d="m-488.832764,669.063049l-428.103516,0l0,0"/>
     <path fill="none" fill-rule="evenodd" stroke="#000000" stroke-width="2.374612px" id="path5758" d="m-488.832764,619.872742l-428.103516,0l0,0"/>
     <path fill="none" fill-rule="evenodd" stroke="#000000" stroke-width="2.374612px" id="path5760" d="m-488.832764,570.682495l-428.103516,0l0,0"/>
     <path fill="none" fill-rule="evenodd" stroke="#000000" stroke-width="2.374612px" id="path5762" d="m-488.832764,521.492065l-428.103516,0l0,0"/>
     <path fill="none" fill-rule="evenodd" stroke="#000000" stroke-width="2.374612px" id="path5764" d="m-488.832764,472.301727l-428.103516,0l0,0"/>
     <path fill="none" fill-rule="evenodd" stroke="#000000" stroke-width="2.374612px" id="path5766" d="m-488.832764,423.111298l-428.103516,0l0,0"/>
     <path fill="none" fill-rule="evenodd" stroke="#000000" stroke-width="2.374612px" id="path5768" d="m-488.832764,373.920868l-428.103516,0l0,0"/>
     <path fill="none" fill-rule="evenodd" stroke="#000000" stroke-width="2.374612px" id="path5770" d="m-488.832764,324.73056l-428.103516,0l0,0"/>
     <path fill="none" fill-rule="evenodd" stroke="#000000" stroke-width="2.374612px" id="path5772" d="m-488.832764,275.540253l-428.103516,0l0,0"/>
     <path fill="none" fill-rule="evenodd" stroke="#000000" stroke-width="2.374612px" id="path5774" d="m-488.832764,226.349945l-428.103516,0l0,0"/>
     <path fill="none" fill-rule="evenodd" stroke="#000000" stroke-width="2.374612px" id="path5776" d="m-488.832764,865.824463l-428.103516,0l0,0"/>
     <path fill="none" fill-rule="evenodd" stroke="#000000" stroke-width="2.374612px" id="path5778" d="m-488.832764,816.634094l-428.103516,0l0,0"/>
    </g>
   </g>
   <g id="g5719">
    <rect fill="#ffffff" stroke="#000000" stroke-width="4" stroke-miterlimit="4" stroke-dashoffset="0" id="rect5329" y="313.487978" x="-1197.039553" ry="12" rx="12" height="789.13116" width="579.82758"/>
    <g id="g5621">
     <path fill="#000000" stroke-miterlimit="4" stroke-dashoffset="0" id="path5429" d="m-1146.147827,590.74707l0,-29.504272l0,29.504272z"/>
     <path fill="#000000" stroke-miterlimit="4" stroke-dashoffset="0" id="path5437" d="m-1148.303711,854.864502l0,-29.504333l0,29.504333z"/>
    </g>
    <g id="g5605">
     <path fill="none" fill-rule="evenodd" stroke="#000000" stroke-width="2.374612px" id="path5403" d="m-673.018799,931.089722l-428.103638,0l0,0"/>
     <path fill="none" fill-rule="evenodd" stroke="#000000" stroke-width="2.374612px" id="path5405" d="m-673.018799,881.899292l-428.103638,0l0,0"/>
     <path fill="none" fill-rule="evenodd" stroke="#000000" stroke-width="2.374612px" id="path5407" d="m-673.018799,832.708923l-428.103638,0l0,0"/>
     <path fill="none" fill-rule="evenodd" stroke="#000000" stroke-width="2.374612px" id="path5409" d="m-673.018799,783.518677l-428.103638,0l0,0"/>
     <path fill="none" fill-rule="evenodd" stroke="#000000" stroke-width="2.374612px" id="path5411" d="m-673.018799,734.328369l-428.103638,0l0,0"/>
     <path fill="none" fill-rule="evenodd" stroke="#000000" stroke-width="2.374612px" id="path5413" d="m-673.018799,685.137939l-428.103638,0l0,0"/>
     <path fill="none" fill-rule="evenodd" stroke="#000000" stroke-width="2.374612px" id="path5415" d="m-673.018799,635.947632l-428.103638,0l0,0"/>
     <path fill="none" fill-rule="evenodd" stroke="#000000" stroke-width="2.374612px" id="path5417" d="m-673.018799,586.757202l-428.103638,0l0,0"/>
     <path fill="none" fill-rule="evenodd" stroke="#000000" stroke-width="2.374612px" id="path5419" d="m-673.018799,537.566772l-428.103638,0l0,0"/>
     <path fill="none" fill-rule="evenodd" stroke="#000000" stroke-width="2.374612px" id="path5421" d="m-673.018799,488.376434l-428.103638,0l0,0"/>
     <path fill="none" fill-rule="evenodd" stroke="#000000" stroke-width="2.374612px" id="path5423" d="m-673.018799,439.186096l-428.103638,0l0,0"/>
     <path fill="none" fill-rule="evenodd" stroke="#000000" stroke-width="2.374612px" id="path5425" d="m-673.018799,389.995819l-428.103638,0l0,0"/>
     <path fill="none" fill-rule="evenodd" stroke="#000000" stroke-width="2.374612px" id="path5601" d="m-673.018799,1029.470459l-428.103638,0l0,0"/>
     <path fill="none" fill-rule="evenodd" stroke="#000000" stroke-width="2.374612px" id="path5603" d="m-673.018799,980.280029l-428.103638,0l0,0"/>
    </g>
   </g>
   <g id="g5780" transform="matrix(0.984808 0.173648 -0.173648 0.984808 364.068 18.7738)">
    <rect fill="#ffffff" stroke="#000000" stroke-width="4" stroke-miterlimit="4" stroke-dashoffset="0" id="rect5782" y="506.631365" x="-1350.010577" ry="12" rx="12" height="789.13116" width="579.82758"/>
    <g id="g5784">
     <path fill="#000000" stroke-miterlimit="4" stroke-dashoffset="0" id="path5786" d="m-1299.118896,783.890442l0,-29.504272l0,29.504272z"/>
     <path fill="#000000" stroke-miterlimit="4" stroke-dashoffset="0" id="path5788" d="m-1301.274902,1048.007813l0,-29.50415l0,29.50415z"/>
    </g>
    <g id="g5790">
     <path fill="none" fill-rule="evenodd" stroke="#000000" stroke-width="2.374612px" id="path5792" d="m-825.989868,1124.233154l-428.103516,0l0,0"/>
     <path fill="none" fill-rule="evenodd" stroke="#000000" stroke-width="2.374612px" id="path5794" d="m-825.989868,1075.042725l-428.103516,0l0,0"/>
     <path fill="none" fill-rule="evenodd" stroke="#000000" stroke-width="2.374612px" id="path5796" d="m-825.989868,1025.852295l-428.103516,0l0,0"/>
     <path fill="none" fill-rule="evenodd" stroke="#000000" stroke-width="2.374612px" id="path5798" d="m-825.989868,976.661987l-428.103516,0l0,0"/>
     <path fill="none" fill-rule="evenodd" stroke="#000000" stroke-width="2.374612px" id="path5800" d="m-825.989868,927.47168l-428.103516,0l0,0"/>
     <path fill="none" fill-rule="evenodd" stroke="#000000" stroke-width="2.374612px" id="path5802" d="m-825.989868,878.281311l-428.103516,0l0,0"/>
     <path fill="none" fill-rule="evenodd" stroke="#000000" stroke-width="2.374612px" id="path5804" d="m-825.989868,829.091003l-428.103516,0l0,0"/>
     <path fill="none" fill-rule="evenodd" stroke="#000000" stroke-width="2.374612px" id="path5806" d="m-825.989868,779.900574l-428.103516,0l0,0"/>
     <path fill="none" fill-rule="evenodd" stroke="#000000" stroke-width="2.374612px" id="path5808" d="m-825.989868,730.710083l-428.103516,0l0,0"/>
     <path fill="none" fill-rule="evenodd" stroke="#000000" stroke-width="2.374612px" id="path5810" d="m-825.989868,681.519836l-428.103516,0l0,0"/>
     <path fill="none" fill-rule="evenodd" stroke="#000000" stroke-width="2.374612px" id="path5812" d="m-825.989868,632.329529l-428.103516,0l0,0"/>
     <path fill="none" fill-rule="evenodd" stroke="#000000" stroke-width="2.374612px" id="path5814" d="m-825.989868,583.139221l-428.103516,0l0,0"/>
     <path fill="none" fill-rule="evenodd" stroke="#000000" stroke-width="2.374612px" id="path5816" d="m-825.989868,1222.61377l-428.103516,0l0,0"/>
     <path fill="none" fill-rule="evenodd" stroke="#000000" stroke-width="2.374612px" id="path5818" d="m-825.989868,1173.423462l-428.103516,0l0,0"/>
    </g>
   </g>
  </g>
 </g>
</svg>